HIERARCHY
ROOT Hips
{
 OFFSET 0.000000 0.000000 0.000000
 CHANNELS 6 Xposition Yposition Zposition Yrotation Xrotation Zrotation
 JOINT Chest
 {
  OFFSET 0.000000 9.588913 -0.003946
  CHANNELS 3 Yrotation Xrotation Zrotation
  JOINT Chest2
  {
   OFFSET 0.000000 9.541882 0.008053
   CHANNELS 3 Yrotation Xrotation Zrotation
   JOINT Chest3
   {
    OFFSET 0.000000 9.501360 0.000000
    CHANNELS 3 Yrotation Xrotation Zrotation
    JOINT Chest4
    {
     OFFSET 0.000000 9.491660 0.000000
     CHANNELS 3 Yrotation Xrotation Zrotation
     JOINT Neck
     {
      OFFSET 0.000000 14.331917 0.000000
      CHANNELS 3 Yrotation Xrotation Zrotation
      JOINT Head
      {
       OFFSET 0.000000 8.884799 0.017034
       CHANNELS 3 Yrotation Xrotation Zrotation
       End Site
       {
        OFFSET 0.000000 16.896195 0.008993
       }
      }
     }
     JOINT RightCollar
     {
      OFFSET -2.923010 9.499495 0.000000
      CHANNELS 3 Yrotation Xrotation Zrotation
      JOINT RightShoulder
      {
       OFFSET -13.795216 0.000000 0.000000
       CHANNELS 3 Yrotation Xrotation Zrotation
       JOINT RightElbow
       {
        OFFSET -30.272209 0.000000 0.000000
        CHANNELS 3 Yrotation Xrotation Zrotation
        JOINT RightWrist
        {
         OFFSET -24.478199 0.000000 0.000000
         CHANNELS 3 Yrotation Xrotation Zrotation
         End Site
         {
          OFFSET -18.090752 0.000000 0.000000
         }
        }
       }
      }
     }
     JOINT LeftCollar
     {
      OFFSET 2.923010 9.499495 0.000000
      CHANNELS 3 Yrotation Xrotation Zrotation
      JOINT LeftShoulder
      {
       OFFSET 13.795216 0.000000 0.000000
       CHANNELS 3 Yrotation Xrotation Zrotation
       JOINT LeftElbow
       {
        OFFSET 30.272209 0.000000 0.000000
        CHANNELS 3 Yrotation Xrotation Zrotation
        JOINT LeftWrist
        {
         OFFSET 24.478199 0.000000 0.000000
         CHANNELS 3 Yrotation Xrotation Zrotation
         End Site
         {
          OFFSET 18.090752 0.000000 0.000000
         }
        }
       }
      }
     }
    }
   }
  }
 }
 JOINT RightHip
 {
  OFFSET -7.826875 0.019532 0.001973
  CHANNELS 3 Yrotation Xrotation Zrotation
  JOINT RightKnee
  {
   OFFSET 0.000000 -40.546152 -0.001885
   CHANNELS 3 Yrotation Xrotation Zrotation
   JOINT RightAnkle
   {
    OFFSET 0.000000 -39.417092 -0.003189
    CHANNELS 3 Yrotation Xrotation Zrotation
    JOINT RightToe
    {
     OFFSET 0.000000 -7.579396 17.243563
     CHANNELS 3 Yrotation Xrotation Zrotation
     End Site
     {
      OFFSET 0.000000 -1.500329 6.694466
     }
    }
   }
  }
 }
 JOINT LeftHip
 {
  OFFSET 7.826875 0.019532 0.001973
  CHANNELS 3 Yrotation Xrotation Zrotation
  JOINT LeftKnee
  {
   OFFSET 0.000000 -40.546152 -0.001885
   CHANNELS 3 Yrotation Xrotation Zrotation
   JOINT LeftAnkle
   {
    OFFSET 0.000000 -39.417092 -0.003189
    CHANNELS 3 Yrotation Xrotation Zrotation
    JOINT LeftToe
    {
     OFFSET 0.000000 -7.579396 17.243563
     CHANNELS 3 Yrotation Xrotation Zrotation
     End Site
     {
      OFFSET 0.000000 -1.500329 6.694466
     }
    }
   }
  }
 }
}
MOTION
Frames: 5
Frame Time: 0.008333
0.000000 87.345680 0.000000 0.000000 -5.767889 0.000000 0.000000 11.653876 0.000000 0.000000 -5.885988 0.000000 0.000000 -0.000000 0.000000 0.000000 -0.000000 0.000000 0.000000 12.528808 0.000000 0.000000 0.711711 0.000000 0.000000 -0.000000 0.000000 0.000000 -0.000000 0.000000 2.309063 -0.000000 0.000000 -2.309063 -0.000000 -0.000000 0.000000 -0.000000 0.000000 0.000000 0.000000 0.000000 -2.309063 0.000000 0.000000 2.309063 -0.000000 0.000000 0.000000 8.520374 0.000000 0.000000 1.905768 0.000000 -0.000000 -4.658254 0.000000 0.000000 -0.000000 0.000000 0.000000 8.520374 0.000000 0.000000 1.905768 0.000000 -0.000000 -4.658254 0.000000 0.000000 -0.000000 0.000000
12.914348 88.757145 0.159637 41.139408 -9.361990 -0.339598 1.065215 4.435777 1.172042 0.651015 2.501720 0.321987 0.816161 3.126563 0.407025 0.651014 2.501720 0.321986 7.041435 27.921239 -2.723913 8.494076 5.562308 -4.645137 5.475818 -3.234680 -4.507956 3.583954 -28.625395 59.013886 65.780900 -41.820352 54.567816 19.715613 -15.605558 -11.837260 -12.904306 -6.152081 -4.594249 -6.837630 -25.001126 -73.096218 -29.947435 13.291459 -44.468873 -15.694303 -5.316752 3.453482 -2.432056 10.672033 -1.954186 2.230134 2.493514 0.829048 1.611603 -4.560816 0.894228 -0.090691 0.914314 -0.022506 14.807883 2.417777 6.627970 -2.770787 15.764875 1.002431 -1.750042 -9.104550 -6.318710 -0.092964 -0.817247 0.363410
12.841954 88.734036 0.130325 41.193932 -9.452538 -0.369052 1.064426 4.556219 1.226728 0.651294 2.576915 0.338662 0.816705 3.220526 0.428016 0.651293 2.576915 0.338661 7.118139 27.965633 -2.799021 8.601790 5.634385 -4.748182 5.635936 -3.275149 -4.648486 3.585821 -29.089069 58.518593 65.767239 -42.142686 54.713471 19.854017 -15.723161 -11.888503 -13.051182 -6.202925 -4.642981 -6.980056 -25.480556 -72.817811 -29.878366 13.160450 -44.813814 -16.011210 -5.469286 3.481642 -2.408040 10.736480 -1.927112 2.231130 2.475419 0.882692 1.571336 -4.557656 0.841598 -0.087314 0.939865 -0.020863 14.616408 2.011120 6.708297 -2.699600 16.617049 0.980703 -1.804461 -9.341875 -6.479116 -0.098526 -0.896196 0.390948
12.761399 88.709372 0.093741 41.240771 -9.544872 -0.392333 1.069357 4.683490 1.268296 0.653269 2.651393 0.356233 0.819384 3.313589 0.450139 0.653269 2.651393 0.356232 7.191404 28.004765 -2.869906 8.704509 5.699163 -4.845726 5.798614 -3.312116 -4.785386 3.590231 -29.570761 58.024673 65.789360 -42.455355 54.820682 19.992422 -15.834818 -11.957605 -13.196744 -6.255523 -4.686346 -7.137347 -25.935137 -72.550322 -29.858545 12.993789 -45.140791 -16.360473 -5.611637 3.567143 -2.371488 10.798108 -1.900527 2.216890 2.451484 0.930143 1.540568 -4.549170 0.794304 -0.084380 0.970497 -0.021366 14.423447 1.597986 6.798563 -2.641697 17.467850 0.948838 -1.875455 -9.580218 -6.652194 -0.103305 -0.949531 0.420418
12.676709 88.685566 0.051163 41.276575 -9.629665 -0.411193 1.080578 4.812400 1.298142 0.657497 2.723323 0.375528 0.824895 3.403462 0.474432 0.657496 2.723324 0.375527 7.261637 28.040309 -2.938111 8.803103 5.758944 -4.939598 5.964191 -3.342189 -4.917131 3.580271 -30.077945 57.526196 65.840373 -42.754030 54.910406 20.134801 -15.941536 -12.046673 -13.340702 -6.310685 -4.727272 -7.292396 -26.370533 -72.299161 -29.891149 12.807063 -45.454477 -16.722501 -5.742425 3.694704 -2.328072 10.847871 -1.875199 2.190042 2.423552 0.972722 1.521756 -4.530701 0.753914 -0.081268 0.999146 -0.024515 14.231024 1.174995 6.897471 -2.598313 18.309293 0.908557 -1.965408 -9.820046 -6.836536 -0.106460 -0.974600 0.450167
